<svg xmlns="http://www.w3.org/2000/svg" viewBox="0 0 360 150" font-family="DejaVu Serif, serif">
<text x="90" y="24" font-size="12.5" fill="#6b7280" text-anchor="middle">B out of page</text>
<circle cx="40" cy="50" r="9" fill="none" stroke="#1d4ed8" stroke-width="1.5"/>
<circle cx="40" cy="50" r="2" fill="#1d4ed8"/>
<circle cx="40" cy="80" r="9" fill="none" stroke="#1d4ed8" stroke-width="1.5"/>
<circle cx="40" cy="80" r="2" fill="#1d4ed8"/>
<circle cx="40" cy="110" r="9" fill="none" stroke="#1d4ed8" stroke-width="1.5"/>
<circle cx="40" cy="110" r="2" fill="#1d4ed8"/>
<circle cx="78" cy="50" r="9" fill="none" stroke="#1d4ed8" stroke-width="1.5"/>
<circle cx="78" cy="50" r="2" fill="#1d4ed8"/>
<circle cx="78" cy="80" r="9" fill="none" stroke="#1d4ed8" stroke-width="1.5"/>
<circle cx="78" cy="80" r="2" fill="#1d4ed8"/>
<circle cx="78" cy="110" r="9" fill="none" stroke="#1d4ed8" stroke-width="1.5"/>
<circle cx="78" cy="110" r="2" fill="#1d4ed8"/>
<circle cx="116" cy="50" r="9" fill="none" stroke="#1d4ed8" stroke-width="1.5"/>
<circle cx="116" cy="50" r="2" fill="#1d4ed8"/>
<circle cx="116" cy="80" r="9" fill="none" stroke="#1d4ed8" stroke-width="1.5"/>
<circle cx="116" cy="80" r="2" fill="#1d4ed8"/>
<circle cx="116" cy="110" r="9" fill="none" stroke="#1d4ed8" stroke-width="1.5"/>
<circle cx="116" cy="110" r="2" fill="#1d4ed8"/>
<text x="270" y="24" font-size="12.5" fill="#6b7280" text-anchor="middle">B into page</text>
<circle cx="220" cy="50" r="9" fill="none" stroke="#c81e1e" stroke-width="1.5"/>
<line x1="214" y1="44" x2="226" y2="56" stroke="#c81e1e" stroke-width="1.5"/>
<line x1="214" y1="56" x2="226" y2="44" stroke="#c81e1e" stroke-width="1.5"/>
<circle cx="220" cy="80" r="9" fill="none" stroke="#c81e1e" stroke-width="1.5"/>
<line x1="214" y1="74" x2="226" y2="86" stroke="#c81e1e" stroke-width="1.5"/>
<line x1="214" y1="86" x2="226" y2="74" stroke="#c81e1e" stroke-width="1.5"/>
<circle cx="220" cy="110" r="9" fill="none" stroke="#c81e1e" stroke-width="1.5"/>
<line x1="214" y1="104" x2="226" y2="116" stroke="#c81e1e" stroke-width="1.5"/>
<line x1="214" y1="116" x2="226" y2="104" stroke="#c81e1e" stroke-width="1.5"/>
<circle cx="258" cy="50" r="9" fill="none" stroke="#c81e1e" stroke-width="1.5"/>
<line x1="252" y1="44" x2="264" y2="56" stroke="#c81e1e" stroke-width="1.5"/>
<line x1="252" y1="56" x2="264" y2="44" stroke="#c81e1e" stroke-width="1.5"/>
<circle cx="258" cy="80" r="9" fill="none" stroke="#c81e1e" stroke-width="1.5"/>
<line x1="252" y1="74" x2="264" y2="86" stroke="#c81e1e" stroke-width="1.5"/>
<line x1="252" y1="86" x2="264" y2="74" stroke="#c81e1e" stroke-width="1.5"/>
<circle cx="258" cy="110" r="9" fill="none" stroke="#c81e1e" stroke-width="1.5"/>
<line x1="252" y1="104" x2="264" y2="116" stroke="#c81e1e" stroke-width="1.5"/>
<line x1="252" y1="116" x2="264" y2="104" stroke="#c81e1e" stroke-width="1.5"/>
<circle cx="296" cy="50" r="9" fill="none" stroke="#c81e1e" stroke-width="1.5"/>
<line x1="290" y1="44" x2="302" y2="56" stroke="#c81e1e" stroke-width="1.5"/>
<line x1="290" y1="56" x2="302" y2="44" stroke="#c81e1e" stroke-width="1.5"/>
<circle cx="296" cy="80" r="9" fill="none" stroke="#c81e1e" stroke-width="1.5"/>
<line x1="290" y1="74" x2="302" y2="86" stroke="#c81e1e" stroke-width="1.5"/>
<line x1="290" y1="86" x2="302" y2="74" stroke="#c81e1e" stroke-width="1.5"/>
<circle cx="296" cy="110" r="9" fill="none" stroke="#c81e1e" stroke-width="1.5"/>
<line x1="290" y1="104" x2="302" y2="116" stroke="#c81e1e" stroke-width="1.5"/>
<line x1="290" y1="116" x2="302" y2="104" stroke="#c81e1e" stroke-width="1.5"/>
</svg>